<?xml version="1.0" encoding="UTF-8" standalone="no"?>
<!-- Generator: IcoMoon.io -->

<svg
   xmlns:dc="http://purl.org/dc/elements/1.1/"
   xmlns:cc="http://creativecommons.org/ns#"
   xmlns:rdf="http://www.w3.org/1999/02/22-rdf-syntax-ns#"
   xmlns:svg="http://www.w3.org/2000/svg"
   xmlns="http://www.w3.org/2000/svg"
   xmlns:sodipodi="http://sodipodi.sourceforge.net/DTD/sodipodi-0.dtd"
   xmlns:inkscape="http://www.inkscape.org/namespaces/inkscape"
   version="1.1"
   id="Layer_1"
   x="0px"
   y="0px"
   width="48px"
   height="48px"
   viewBox="0 0 48 48"
   enable-background="new 0 0 16 16"
   xml:space="preserve"
   fill="#000000"
   inkscape:version="0.48.3.1 r9886"
   sodipodi:docname="bullhorn.svg"><metadata
   id="metadata9"><rdf:RDF><cc:Work
       rdf:about=""><dc:format>image/svg+xml</dc:format><dc:type
         rdf:resource="http://purl.org/dc/dcmitype/StillImage" /><dc:title></dc:title></cc:Work></rdf:RDF></metadata><defs
   id="defs7" /><sodipodi:namedview
   pagecolor="#ffffff"
   bordercolor="#666666"
   borderopacity="1"
   objecttolerance="10"
   gridtolerance="10"
   guidetolerance="10"
   inkscape:pageopacity="0"
   inkscape:pageshadow="2"
   inkscape:window-width="753"
   inkscape:window-height="480"
   id="namedview5"
   showgrid="false"
   inkscape:zoom="4.9166667"
   inkscape:cx="24"
   inkscape:cy="24"
   inkscape:window-x="335"
   inkscape:window-y="165"
   inkscape:window-maximized="0"
   inkscape:current-layer="Layer_1" /> <path
   d="m 9,0 18,6 9,0 c 4.971,0 9,4.029 9,9 1.656,0 3,1.344 3,3 0,1.656 -1.344,3 -3,3 0,3.702 -2.241,6.879 -5.436,8.262 L 42,45 c 0,1.659 -1.344,3 -3,3 l -6,0 c -1.656,0 -3,-1.341 -3,-3 L 27.75,30 27,30 9,36 C 4.032,36 0,27.939 0,18 0,8.061 4.032,0 9,0 z m 27,18 3,0 0,-6 -3,0 0,6 z m -6,0 3,0 0,-6 -3,0 0,6 z M 9,30 c 3.312,0 6,-5.373 6,-12 C 15,11.373 12.312,6 9,6 5.688,6 3,11.373 3,18 3,24.627 5.688,30 9,30 z m 0,-15 2.724,0 c 0.168,0.942 0.276,1.941 0.276,3 0,1.059 -0.108,2.058 -0.276,3 L 9,21 C 7.341,21 6,19.656 6,18 6,16.344 7.341,15 9,15 z"
   id="path3"
   style="fill:#0089ce;fill-opacity:1"
   inkscape:connector-curvature="0"
   inkscape:export-filename="/home/normal/Projects/DataUnity/Temp/website/v2_dev/images/icons/bullhorn.png"
   inkscape:export-xdpi="431.25"
   inkscape:export-ydpi="431.25" /></svg>