<?xml version="1.0" encoding="UTF-8" standalone="no"?>
<!-- Generator: IcoMoon.io -->

<svg
   xmlns:dc="http://purl.org/dc/elements/1.1/"
   xmlns:cc="http://creativecommons.org/ns#"
   xmlns:rdf="http://www.w3.org/1999/02/22-rdf-syntax-ns#"
   xmlns:svg="http://www.w3.org/2000/svg"
   xmlns="http://www.w3.org/2000/svg"
   xmlns:sodipodi="http://sodipodi.sourceforge.net/DTD/sodipodi-0.dtd"
   xmlns:inkscape="http://www.inkscape.org/namespaces/inkscape"
   version="1.1"
   id="Layer_1"
   x="0px"
   y="0px"
   width="48px"
   height="48px"
   viewBox="0 0 48 48"
   enable-background="new 0 0 16 16"
   xml:space="preserve"
   fill="#000000"
   inkscape:version="0.48.3.1 r9886"
   sodipodi:docname="heart-empty.svg"
   inkscape:export-filename="/home/normal/Projects/DataUnity/PublicSite/images/icons/heart-empty.png"
   inkscape:export-xdpi="373.39471"
   inkscape:export-ydpi="373.39471"><metadata
   id="metadata9"><rdf:RDF><cc:Work
       rdf:about=""><dc:format>image/svg+xml</dc:format><dc:type
         rdf:resource="http://purl.org/dc/dcmitype/StillImage" /><dc:title></dc:title></cc:Work></rdf:RDF></metadata><defs
   id="defs7" /><sodipodi:namedview
   pagecolor="#ffffff"
   bordercolor="#666666"
   borderopacity="1"
   objecttolerance="10"
   gridtolerance="10"
   guidetolerance="10"
   inkscape:pageopacity="0"
   inkscape:pageshadow="2"
   inkscape:window-width="753"
   inkscape:window-height="480"
   id="namedview5"
   showgrid="false"
   inkscape:zoom="4.9166667"
   inkscape:cx="24"
   inkscape:cy="24"
   inkscape:window-x="334"
   inkscape:window-y="110"
   inkscape:window-maximized="0"
   inkscape:current-layer="Layer_1" /> <path
   d="M 44.463,23.787L 24.00,45.00L 3.537,23.787c-4.686-4.686-4.686-12.285,0.00-16.971 c 4.686-4.686, 12.285-4.686, 16.971,0.00L 24.00,11.061l 3.492-4.242c 4.686-4.686, 12.285-4.686, 16.971,0.00C 49.149,11.502, 49.149,19.101, 44.463,23.787z M 31.734,11.061L 24.00,19.545L 16.266,11.061c-2.343-2.343-6.144-2.343-8.487,0.00c-2.34,2.343-2.34,6.141,0.00,8.484L 24.00,36.516l 16.221-16.971 c 2.34-2.343, 2.34-6.141,0.00-8.484C 37.878,8.715, 34.077,8.715, 31.734,11.061z"
   id="path3"
   style="fill:#0089ce;fill-opacity:1"
   inkscape:export-xdpi="431.6702"
   inkscape:export-ydpi="431.6702"
   inkscape:export-filename="/home/normal/Projects/DataUnity/Temp/website/v2_dev/images/icons/heart-empty.png" /></svg>