<?xml version="1.0" encoding="UTF-8" standalone="no"?>
<!-- Generator: IcoMoon.io -->

<svg
   xmlns:dc="http://purl.org/dc/elements/1.1/"
   xmlns:cc="http://creativecommons.org/ns#"
   xmlns:rdf="http://www.w3.org/1999/02/22-rdf-syntax-ns#"
   xmlns:svg="http://www.w3.org/2000/svg"
   xmlns="http://www.w3.org/2000/svg"
   xmlns:sodipodi="http://sodipodi.sourceforge.net/DTD/sodipodi-0.dtd"
   xmlns:inkscape="http://www.inkscape.org/namespaces/inkscape"
   version="1.1"
   id="Layer_1"
   x="0px"
   y="0px"
   width="48px"
   height="48px"
   viewBox="0 0 48 48"
   enable-background="new 0 0 16 16"
   xml:space="preserve"
   fill="#000000"
   inkscape:version="0.48.3.1 r9886"
   sodipodi:docname="speech-bubble-left-2.svg"><metadata
   id="metadata9"><rdf:RDF><cc:Work
       rdf:about=""><dc:format>image/svg+xml</dc:format><dc:type
         rdf:resource="http://purl.org/dc/dcmitype/StillImage" /><dc:title></dc:title></cc:Work></rdf:RDF></metadata><defs
   id="defs7" /><sodipodi:namedview
   pagecolor="#ffffff"
   bordercolor="#666666"
   borderopacity="1"
   objecttolerance="10"
   gridtolerance="10"
   guidetolerance="10"
   inkscape:pageopacity="0"
   inkscape:pageshadow="2"
   inkscape:window-width="753"
   inkscape:window-height="480"
   id="namedview5"
   showgrid="false"
   inkscape:zoom="4.9166667"
   inkscape:cx="24"
   inkscape:cy="24"
   inkscape:window-x="596"
   inkscape:window-y="152"
   inkscape:window-maximized="0"
   inkscape:current-layer="Layer_1" /> <path
   d="M 39.00,39.00L21.00,39.00 l-6.00,9.00l-6.00-9.00c-4.971,0.00-9.00-4.032-9.00-9.00L0.00,9.00 c0.00-4.971, 4.029-9.00, 9.00-9.00l30.00,0.00 c 4.968,0.00, 9.00,4.029, 9.00,9.00l0.00,21.00 C 48.00,34.968, 43.968,39.00, 39.00,39.00z M 42.00,9.00c0.00-1.656-1.341-3.00-3.00-3.00L9.00,6.00 C 7.344,6.00, 6.00,7.344, 6.00,9.00l0.00,21.00 c0.00,1.659, 1.344,3.00, 3.00,3.00l2.001,0.00 L 15.00,39.00l 4.002-6.00L39.00,33.00 c 1.659,0.00, 3.00-1.341, 3.00-3.00L42.00,9.00 z M 12.00,18.00l24.00,0.00 l0.00,3.00 L12.00,21.00 L12.00,18.00 z M 12.00,12.00l24.00,0.00 l0.00,3.00 L12.00,15.00 L12.00,12.00 z M 24.00,27.00L12.00,27.00 L12.00,24.00 l12.00,0.00 L24.00,27.00 z"
   id="path3"
   style="fill:#0089ce;fill-opacity:1"
   inkscape:export-xdpi="234.375"
   inkscape:export-ydpi="234.375"
   inkscape:export-filename="/home/normal/Projects/DataUnity/Temp/website/v2_dev/images/icons/speech-bubble-left-2.png" /></svg>